<svg data-v-423bf9ae="" xmlns="http://www.w3.org/2000/svg" viewBox="0 0 264.0130205031295 60" class="font"><!----><!----><!----><g data-v-423bf9ae="" id="4cf1eac4-c0e5-4331-8d37-6387a0c4a4fb" fill="#00a8ff" transform="matrix(6.00712209146892,0,0,6.00712209146892,-4.204982823261844,-22.344991487512665)"><path d="M2.25 3.72L6.34 3.72L6.34 5.56L2.55 5.56L2.55 7.73L6.34 7.73L6.34 7.73Q6.33 8.05 6.24 8.37L6.24 8.37L6.24 8.37Q6.16 8.69 5.98 8.95L5.98 8.95L5.98 8.95Q5.80 9.20 5.51 9.36L5.51 9.36L5.51 9.36Q5.22 9.52 4.79 9.52L4.79 9.52L2.55 9.52L2.55 13.52L0.70 13.52L0.70 5.38L0.70 5.38Q0.70 4.62 1.04 4.17L1.04 4.17L1.04 4.17Q1.39 3.72 2.25 3.72L2.25 3.72ZM12.68 10.72L12.68 10.72L12.68 10.72Q11.93 10.92 11.30 10.86L11.30 10.86L11.30 10.86Q10.68 10.81 10.28 10.56L10.28 10.56L10.28 10.56Q9.88 10.32 9.75 9.91L9.75 9.91L9.75 9.91Q9.62 9.49 9.83 8.97L9.83 8.97L9.83 8.97Q10.26 9.34 10.84 9.37L10.84 9.37L10.84 9.37Q11.41 9.41 11.94 9.35L11.94 9.35L11.94 9.35Q12.39 9.31 12.62 9.16L12.62 9.16L12.62 9.16Q12.85 9.00 12.91 8.80L12.91 8.80L12.91 8.80Q12.96 8.60 12.87 8.37L12.87 8.37L12.87 8.37Q12.77 8.15 12.55 7.97L12.55 7.97L12.55 7.97Q12.33 7.78 12.02 7.67L12.02 7.67L12.02 7.67Q11.70 7.56 11.33 7.57L11.33 7.57L11.33 7.57Q10.92 7.60 10.56 7.77L10.56 7.77L10.56 7.77Q10.19 7.94 9.91 8.23L9.91 8.23L9.91 8.23Q9.63 8.53 9.46 8.92L9.46 8.92L9.46 8.92Q9.30 9.31 9.28 9.79L9.28 9.79L9.28 9.79Q9.27 10.18 9.37 10.56L9.37 10.56L9.37 10.56Q9.48 10.93 9.69 11.25L9.69 11.25L9.69 11.25Q9.90 11.56 10.19 11.78L10.19 11.78L10.19 11.78Q10.49 12.00 10.86 12.05L10.86 12.05L10.86 12.05Q11.40 12.15 11.96 11.98L11.96 11.98L11.96 11.98Q12.52 11.82 12.95 11.37L12.95 11.37L14.42 12.08L14.42 12.08Q13.85 12.94 13.06 13.31L13.06 13.31L13.06 13.31Q12.28 13.68 11.27 13.68L11.27 13.68L11.27 13.68Q10.33 13.68 9.63 13.35L9.63 13.35L9.63 13.35Q8.92 13.02 8.45 12.47L8.45 12.47L8.45 12.47Q7.98 11.93 7.75 11.24L7.75 11.24L7.75 11.24Q7.52 10.54 7.53 9.82L7.53 9.82L7.53 9.82Q7.55 9.10 7.81 8.41L7.81 8.41L7.81 8.41Q8.08 7.71 8.58 7.18L8.58 7.18L8.58 7.18Q9.14 6.58 9.89 6.33L9.89 6.33L9.89 6.33Q10.64 6.08 11.42 6.08L11.42 6.08L11.42 6.08Q12.29 6.08 12.92 6.37L12.92 6.37L12.92 6.37Q13.55 6.66 13.94 7.12L13.94 7.12L13.94 7.12Q14.34 7.57 14.46 8.13L14.46 8.13L14.46 8.13Q14.59 8.68 14.44 9.20L14.44 9.20L14.44 9.20Q14.29 9.72 13.86 10.13L13.86 10.13L13.86 10.13Q13.43 10.54 12.68 10.72ZM18.40 13.52L15.30 6.29L17.16 6.29L18.98 10.56L20.36 7.39L20.36 7.39Q20.50 7.08 20.71 6.83L20.71 6.83L20.71 6.83Q20.92 6.57 21.20 6.40L21.20 6.40L21.20 6.40Q21.48 6.23 21.85 6.18L21.85 6.18L21.85 6.18Q22.22 6.13 22.68 6.23L22.68 6.23L19.56 13.52L18.40 13.52ZM23.80 13.52L23.80 6.24L25.37 6.24L25.37 7.17L25.37 7.17Q25.61 6.68 25.98 6.39L25.98 6.39L25.98 6.39Q26.35 6.10 26.80 6.08L26.80 6.08L26.80 6.08Q27.38 6.03 27.75 6.29L27.75 6.29L27.75 6.29Q28.11 6.55 28.26 6.92L28.26 6.92L28.26 6.92Q28.41 7.29 28.34 7.68L28.34 7.68L28.34 7.68Q28.27 8.06 27.96 8.29L27.96 8.29L27.96 8.29Q27.83 7.94 27.48 7.83L27.48 7.83L27.48 7.83Q27.12 7.73 26.73 7.86L26.73 7.86L26.73 7.86Q26.33 7.99 26.02 8.36L26.02 8.36L26.02 8.36Q25.70 8.72 25.65 9.31L25.65 9.31L25.65 9.31Q25.62 9.65 25.62 9.98L25.62 9.98L25.62 9.98Q25.62 10.30 25.62 10.58L25.62 10.58L25.62 13.52L23.80 13.52ZM32.69 6.10L32.69 6.10L32.69 6.10Q33.80 6.10 34.66 6.64L34.66 6.64L34.66 6.64Q35.52 7.17 36.01 7.99L36.01 7.99L36.01 7.99Q36.50 8.82 36.53 9.83L36.53 9.83L36.53 9.83Q36.57 10.84 36.02 11.80L36.02 11.80L36.02 11.80Q35.56 12.60 34.82 13.08L34.82 13.08L34.82 13.08Q34.08 13.55 33.24 13.67L33.24 13.67L33.24 13.67Q32.40 13.79 31.55 13.53L31.55 13.53L31.55 13.53Q30.70 13.27 30.03 12.60L30.03 12.60L30.03 12.60Q29.27 11.83 29.02 10.82L29.02 10.82L29.02 10.82Q28.77 9.81 29.06 8.81L29.06 8.81L29.06 8.81Q29.19 8.40 29.48 8.13L29.48 8.13L29.48 8.13Q29.76 7.87 30.13 7.74L30.13 7.74L30.13 7.74Q30.49 7.62 30.88 7.63L30.88 7.63L30.88 7.63Q31.28 7.64 31.61 7.79L31.61 7.79L31.61 7.79Q31.95 7.94 32.18 8.21L32.18 8.21L32.18 8.21Q32.41 8.48 32.45 8.88L32.45 8.88L32.45 8.88Q32.24 8.72 31.95 8.71L31.95 8.71L31.95 8.71Q31.65 8.71 31.38 8.84L31.38 8.84L31.38 8.84Q31.11 8.97 30.92 9.25L30.92 9.25L30.92 9.25Q30.73 9.52 30.73 9.93L30.73 9.93L30.73 9.93Q30.73 10.63 31.02 11.09L31.02 11.09L31.02 11.09Q31.32 11.55 31.76 11.78L31.76 11.78L31.76 11.78Q32.20 12.01 32.71 12.01L32.71 12.01L32.71 12.01Q33.22 12.01 33.66 11.77L33.66 11.77L33.66 11.77Q34.10 11.54 34.40 11.07L34.40 11.07L34.40 11.07Q34.69 10.60 34.69 9.90L34.69 9.90L34.69 9.90Q34.69 9.35 34.50 8.93L34.50 8.93L34.50 8.93Q34.30 8.51 33.97 8.24L33.97 8.24L33.97 8.24Q33.64 7.97 33.21 7.86L33.21 7.86L33.21 7.86Q32.77 7.76 32.28 7.85L32.28 7.85L32.28 7.85Q32.07 7.60 31.77 7.46L31.77 7.46L31.77 7.46Q31.47 7.31 31.12 7.26L31.12 7.26L31.12 7.26Q30.77 7.21 30.42 7.27L30.42 7.27L30.42 7.27Q30.07 7.34 29.76 7.52L29.76 7.52L29.76 7.52Q30.32 6.85 31.07 6.48L31.07 6.48L31.07 6.48Q31.81 6.10 32.69 6.10ZM39.44 3.72L39.44 9.37L40.96 7.67L40.96 7.67Q41.43 7.15 41.87 6.83L41.87 6.83L41.87 6.83Q42.32 6.51 42.95 6.47L42.95 6.47L42.95 6.47Q43.26 6.45 43.54 6.52L43.54 6.52L43.54 6.52Q43.82 6.58 44.00 6.74L44.00 6.74L44.00 6.74Q44.18 6.90 44.24 7.15L44.24 7.15L44.24 7.15Q44.30 7.39 44.17 7.74L44.17 7.74L44.17 7.74Q44.11 7.64 43.97 7.61L43.97 7.61L43.97 7.61Q43.82 7.57 43.62 7.62L43.62 7.62L43.62 7.62Q43.41 7.66 43.18 7.79L43.18 7.79L43.18 7.79Q42.94 7.92 42.71 8.19L42.71 8.19L41.23 9.83L44.65 13.52L42.43 13.52L39.44 10.26L39.44 13.52L37.66 13.52L37.66 5.15L37.66 5.15Q37.66 4.48 38.14 4.10L38.14 4.10L38.14 4.10Q38.63 3.71 39.44 3.72L39.44 3.72Z"></path></g><!----><!----></svg>